<svg width="18" height="18" viewBox="0 0 18 18" fill="none" xmlns="http://www.w3.org/2000/svg">
<path fill-rule="evenodd" clip-rule="evenodd" d="M8.99999 1.5C4.85788 1.5 1.5 4.85784 1.5 8.99999C1.5 13.1421 4.85788 16.5 8.99999 16.5C13.1422 16.5 16.5 13.1421 16.5 8.99999C16.5 4.85784 13.1422 1.5 8.99999 1.5ZM8.99999 15C5.69161 15 3.00001 12.3084 3.00001 8.99999C3.00001 5.69157 5.69157 3.00001 8.99999 3.00001C12.3084 3.00001 15 5.69157 15 8.99999C15 12.3084 12.3084 15 8.99999 15ZM9.93915 6C9.93915 6.5438 9.54322 6.93751 9.00762 6.93751C8.45036 6.93751 8.06413 6.54376 8.06413 5.98959C8.06413 5.45698 8.4608 5.06252 9.00762 5.06252C9.54322 5.06252 9.93915 5.45698 9.93915 6ZM8.25165 8.25H9.75163V12.75H8.25165V8.25Z" fill="black"/>
</svg>
