<svg width="24" height="24" viewBox="0 0 24 24" fill="none" xmlns="http://www.w3.org/2000/svg">
<path d="M7.22748 15.7119C6.93459 16.0048 6.93459 16.4796 7.22748 16.7725C7.52038 17.0654 7.99525 17.0654 8.28814 16.7725L7.22748 15.7119ZM16.9931 7.75691C16.9931 7.34269 16.6573 7.00691 16.2431 7.00691L9.49309 7.00691C9.07888 7.00691 8.74309 7.34269 8.74309 7.75691C8.74309 8.17112 9.07888 8.50691 9.49309 8.50691H15.4931V14.5069C15.4931 14.9211 15.8289 15.2569 16.2431 15.2569C16.6573 15.2569 16.9931 14.9211 16.9931 14.5069L16.9931 7.75691ZM8.28814 16.7725L16.7734 8.28724L15.7128 7.22658L7.22748 15.7119L8.28814 16.7725Z" fill="white"/>
</svg>
