<svg width="24" height="24" viewBox="0 0 24 24" fill="none" xmlns="http://www.w3.org/2000/svg">
<g clip-path="url(#clip0_270_1066)">
<path d="M2.3334 9.0406L12.0001 3.48727L21.6667 9.0406C21.8191 9.1203 21.9964 9.13805 22.1615 9.09014C22.3266 9.04224 22.4669 8.93237 22.5529 8.78351C22.639 8.63464 22.6642 8.45828 22.6233 8.29127C22.5824 8.12426 22.4785 7.97951 22.3334 7.88727L12.0001 1.94727L1.66673 7.88727C1.58706 7.92894 1.51665 7.9863 1.45972 8.0559C1.40279 8.1255 1.36053 8.20589 1.33548 8.29224C1.31043 8.37859 1.3031 8.46912 1.31395 8.55838C1.32479 8.64763 1.35357 8.73378 1.39857 8.81162C1.44357 8.88946 1.50384 8.9574 1.57578 9.01134C1.64771 9.06529 1.72981 9.10412 1.81714 9.12551C1.90447 9.1469 1.99523 9.15041 2.08395 9.13582C2.17267 9.12122 2.25752 9.08884 2.3334 9.0406Z" fill="black"/>
<path d="M2.6665 17.3339C2.6665 17.5107 2.73674 17.6803 2.86177 17.8053C2.98679 17.9303 3.15636 18.0006 3.33317 18.0006H20.6665C20.8433 18.0006 21.0129 17.9303 21.1379 17.8053C21.2629 17.6803 21.3332 17.5107 21.3332 17.3339C21.3332 17.1571 21.2629 16.9875 21.1379 16.8625C21.0129 16.7375 20.8433 16.6672 20.6665 16.6672H18.6665V11.7539H17.3332V16.6672H12.6665V11.7539H11.3332V16.6672H6.6665L6.6665 11.7539H5.33317V16.6672H3.33317C3.15636 16.6672 2.98679 16.7375 2.86177 16.8625C2.73674 16.9875 2.6665 17.1571 2.6665 17.3339Z" fill="black"/>
<path d="M3.34668 9.33398L20.68 9.33398V10.6673L3.34668 10.6673V9.33398Z" fill="black"/>
<path d="M22.0002 19.334L2.00016 19.334C1.82335 19.334 1.65378 19.4042 1.52876 19.5292C1.40373 19.6543 1.3335 19.8238 1.3335 20.0007C1.3335 20.1775 1.40373 20.347 1.52876 20.4721C1.65378 20.5971 1.82335 20.6673 2.00016 20.6673L22.0002 20.6673C22.177 20.6673 22.3465 20.5971 22.4716 20.4721C22.5966 20.347 22.6668 20.1775 22.6668 20.0007C22.6668 19.8238 22.5966 19.6543 22.4716 19.5292C22.3465 19.4042 22.177 19.334 22.0002 19.334Z" fill="black"/>
<path d="M14.7666 7.72096L16.9066 7.72096L12.4333 5.14762C12.3522 5.10082 12.2602 5.07617 12.1666 5.07617C12.073 5.07617 11.981 5.10082 11.8999 5.14762L7.41992 7.72096H9.55992L12.1599 6.22763L14.7666 7.72096Z" fill="black"/>
</g>
<defs>
<clipPath id="clip0_270_1066">
<rect width="24" height="24" fill="white"/>
</clipPath>
</defs>
</svg>
