<svg width="16" height="18" viewBox="0 0 16 18" fill="none" xmlns="http://www.w3.org/2000/svg">
<path d="M6.42384 1.56044C6.55084 1.24655 6.76868 0.977731 7.04945 0.78845C7.33022 0.599168 7.66112 0.498047 7.99974 0.498047C8.33835 0.498047 8.66925 0.599168 8.95002 0.78845C9.23079 0.977731 9.44864 1.24655 9.57564 1.56044C10.8326 1.90612 11.9413 2.65487 12.7315 3.69168C13.5217 4.72849 13.9497 5.99604 13.9497 7.29964V11.2921L15.5069 13.6279C15.5923 13.7559 15.6414 13.9047 15.6489 14.0584C15.6563 14.2121 15.6219 14.365 15.5493 14.5006C15.4767 14.6363 15.3687 14.7498 15.2366 14.8288C15.1046 14.9079 14.9536 14.9497 14.7997 14.9496H10.945C10.8426 15.6578 10.4886 16.3053 9.94768 16.7737C9.40678 17.242 8.71523 17.4998 7.99974 17.4998C7.28424 17.4998 6.5927 17.242 6.05179 16.7737C5.51088 16.3053 5.15683 15.6578 5.05449 14.9496H1.19974C1.04585 14.9497 0.894844 14.9079 0.762829 14.8288C0.630814 14.7498 0.522742 14.6363 0.450144 14.5006C0.377545 14.365 0.343144 14.2121 0.350611 14.0584C0.358077 13.9047 0.40713 13.7559 0.492537 13.6279L2.04974 11.2921V7.29964C2.04974 4.55924 3.90274 2.25064 6.42384 1.56044ZM6.79784 14.9496C6.88562 15.1984 7.0484 15.4138 7.26374 15.5662C7.47908 15.7185 7.73637 15.8003 8.00016 15.8003C8.26395 15.8003 8.52124 15.7185 8.73658 15.5662C8.95192 15.4138 9.1147 15.1984 9.20249 14.9496H6.79699H6.79784ZM7.99974 3.04964C6.87257 3.04964 5.79156 3.49741 4.99453 4.29444C4.1975 5.09147 3.74974 6.17247 3.74974 7.29964V11.5496C3.74977 11.7175 3.70008 11.8817 3.60694 12.0214L2.78839 13.2496H13.2102L12.3917 12.0214C12.2988 11.8816 12.2494 11.7175 12.2497 11.5496V7.29964C12.2497 6.17247 11.802 5.09147 11.0049 4.29444C10.2079 3.49741 9.12691 3.04964 7.99974 3.04964Z" fill="black"/>
</svg>
