<svg width="24" height="24" viewBox="0 0 24 24" fill="none" xmlns="http://www.w3.org/2000/svg">
<path d="M11.997 20.9995C9.99767 20.9995 8.33167 20.3121 6.999 18.9375C5.66633 17.5621 5 15.8505 5 13.8025C5 12.8958 5.20667 11.9825 5.62 11.0625C6.03267 10.1425 6.54833 9.2598 7.167 8.41447C7.787 7.56847 8.45567 6.77114 9.173 6.02247C9.891 5.27314 10.5577 4.62114 11.173 4.06647C11.293 3.95914 11.424 3.87614 11.566 3.81747C11.7073 3.75947 11.852 3.73047 12 3.73047C12.148 3.73047 12.2927 3.75947 12.434 3.81747C12.5753 3.87547 12.7063 3.9588 12.827 4.06747C13.4423 4.6208 14.109 5.27247 14.827 6.02247C15.545 6.77114 16.2137 7.56814 16.833 8.41347C17.4523 9.2588 17.9683 10.1418 18.381 11.0625C18.7937 11.9831 19 12.8965 19 13.8025C19 15.8505 18.3327 17.5621 16.998 18.9375C15.662 20.3121 13.9957 20.9995 11.997 20.9995ZM12 19.9995C13.7333 19.9995 15.1667 19.4118 16.3 18.2365C17.4333 17.0611 18 15.5821 18 13.7995C18 12.5828 17.4957 11.2078 16.487 9.67447C15.4783 8.14114 13.9827 6.46614 12 4.64947C10.0167 6.46614 8.521 8.14114 7.513 9.67447C6.505 11.2078 6.00067 12.5828 6 13.7995C6 15.5828 6.56667 17.0621 7.7 18.2375C8.83333 19.4128 10.2667 20.0001 12 19.9995ZM10 17.4995H14C14.142 17.4995 14.2607 17.4515 14.356 17.3555C14.4513 17.2595 14.4993 17.1405 14.5 16.9985C14.5007 16.8565 14.4527 16.7378 14.356 16.6425C14.2593 16.5471 14.1407 16.4995 14 16.4995H10C9.858 16.4995 9.73933 16.5475 9.644 16.6435C9.54867 16.7395 9.50067 16.8585 9.5 17.0005C9.49933 17.1425 9.54733 17.2611 9.644 17.3565C9.74067 17.4518 9.85933 17.4995 10 17.4995ZM11.5 12.4995V13.9995C11.5 14.1415 11.548 14.2601 11.644 14.3555C11.74 14.4508 11.859 14.4988 12.001 14.4995C12.143 14.5001 12.2617 14.4521 12.357 14.3555C12.4523 14.2588 12.5 14.1401 12.5 13.9995V12.4995H14C14.142 12.4995 14.2607 12.4515 14.356 12.3555C14.4513 12.2595 14.4993 12.1405 14.5 11.9985C14.5007 11.8565 14.4527 11.7378 14.356 11.6425C14.2593 11.5471 14.1407 11.4995 14 11.4995H12.5V9.99947C12.5 9.85747 12.452 9.7388 12.356 9.64347C12.26 9.54814 12.141 9.50014 11.999 9.49947C11.857 9.4988 11.7383 9.5468 11.643 9.64347C11.5477 9.74014 11.5 9.8588 11.5 9.99947V11.4995H10C9.858 11.4995 9.73933 11.5475 9.644 11.6435C9.54867 11.7395 9.50067 11.8585 9.5 12.0005C9.49933 12.1425 9.54733 12.2611 9.644 12.3565C9.74067 12.4518 9.85933 12.4995 10 12.4995H11.5Z" fill="black"/>
</svg>
