<svg width="24" height="24" viewBox="0 0 24 24" fill="none" xmlns="http://www.w3.org/2000/svg">
<path d="M2.93754 11.9715C3.76487 13.8038 5.17389 15.7888 6.80305 17.418C8.54074 19.1557 10.4578 20.5318 12.2011 21.2923C13.1503 21.7065 13.9994 21.9137 14.7143 21.9137C15.4249 21.9137 16.0026 21.7085 16.4126 21.2983L18.0571 19.6544C18.5566 19.1543 18.5118 18.2963 17.957 17.7413L15.534 15.3179C14.9786 14.7632 14.1201 14.7187 13.6209 15.2182L12.8664 15.9727C12.6573 16.1291 11.365 15.731 9.91122 14.2773C8.45659 12.8229 8.05765 11.5298 8.2149 11.3227L8.97027 10.5673C9.46979 10.0675 9.42502 9.209 8.87025 8.65423L6.44662 6.23116C5.89129 5.6764 5.03335 5.63135 4.53355 6.13143L2.88965 7.77533C2.06884 8.59586 2.08584 10.0862 2.93725 11.9715H2.93754ZM3.6912 8.5766L5.33539 6.9327C5.34672 6.92136 5.36939 6.91456 5.39857 6.91456C5.4626 6.91456 5.55979 6.94658 5.64564 7.03243L8.0687 9.4555C8.19394 9.58073 8.2047 9.73005 8.16872 9.76603L7.41335 10.5211C6.47439 11.4606 7.55587 13.5247 9.10967 15.0785C9.88345 15.852 10.7343 16.4703 11.5055 16.8185C12.7749 17.3919 13.4047 17.0372 13.6668 16.7746L14.4222 16.0195C14.4584 15.9832 14.6072 15.9943 14.7327 16.1192L17.1555 18.5426C17.2807 18.6678 17.2915 18.8168 17.2555 18.8528L15.6113 20.497C15.1552 20.9534 14.0499 20.8625 12.6545 20.2533C11.0378 19.5481 9.24425 18.2564 7.60432 16.6167C6.06809 15.0805 4.74379 13.217 3.97029 11.5048C3.34525 10.1213 3.2407 9.02681 3.69092 8.5766H3.6912ZM21.7169 13.2275C21.7169 7.08202 16.7169 2.08203 10.5714 2.08203V3.21536C16.0921 3.21536 20.5835 7.70705 20.5835 13.2275H21.7169Z" fill="black"/>
<path d="M10.7817 5.17773V6.31107C14.7116 6.31107 17.909 9.5082 17.909 13.438H19.0423C19.0423 8.88317 15.3363 5.17773 10.7817 5.17773Z" fill="black"/>
<path d="M15.0235 13.4379H16.1569C16.1569 10.4742 13.7457 8.0625 10.7817 8.0625V9.19583C13.1207 9.19583 15.0235 11.099 15.0235 13.4379Z" fill="black"/>
</svg>
