<svg width="24" height="24" viewBox="0 0 24 24" fill="none" xmlns="http://www.w3.org/2000/svg">
<path d="M12 16C14.2091 16 16 14.2091 16 12C16 9.79086 14.2091 8 12 8C9.79086 8 8 9.79086 8 12C8 14.2091 9.79086 16 12 16Z" fill="#0033FD"/>
<path d="M12 4C16.42 4 20 7.58 20 12C20 16.42 16.42 20 12 20C7.58 20 4 16.42 4 12C4 7.58 7.58 4 12 4Z" stroke="#0033FD" stroke-width="2" stroke-linecap="round" stroke-linejoin="round"/>
<path d="M12 4V2M20 12H22M12 20V22M4 12H2" stroke="#0033FD" stroke-width="2" stroke-linecap="round" stroke-linejoin="round"/>
</svg>
