<svg width="24" height="24" viewBox="0 0 24 24" fill="none" xmlns="http://www.w3.org/2000/svg">
<g clip-path="url(#clip0_270_903)">
<path d="M7.92013 18.5698L5.7327 16.3823C5.30402 15.9538 5.06312 15.3725 5.06299 14.7663V9.99833C5.06299 9.69522 5.1834 9.40453 5.39772 9.1902C5.61205 8.97588 5.90274 8.85547 6.20585 8.85547C6.50895 8.85547 6.79964 8.97588 7.01397 9.1902C7.22829 9.40453 7.3487 9.69522 7.3487 9.99833V13.4269M17.015 18.5698L19.2024 16.3823C19.6307 15.9536 19.8712 15.3723 19.871 14.7663V9.99833C19.871 9.69522 19.7506 9.40453 19.5363 9.1902C19.3219 8.97588 19.0312 8.85547 18.7281 8.85547C18.425 8.85547 18.1343 8.97588 17.92 9.1902C17.7057 9.40453 17.5853 9.69522 17.5853 9.99833V13.4269" stroke="#8391A1" stroke-linecap="round" stroke-linejoin="round"/>
<path d="M8.39444 15.5169L7.58644 14.7089C7.37826 14.4933 7.26306 14.2046 7.26567 13.905C7.26827 13.6053 7.38847 13.3187 7.60036 13.1068C7.81226 12.8949 8.0989 12.7747 8.39855 12.7721C8.69821 12.7695 8.98689 12.8847 9.20244 13.0929L10.6802 14.5706C11.1084 14.9993 11.3489 15.5806 11.3487 16.1866V18.5706M16.5407 15.5169L17.3487 14.7089C17.5569 14.4933 17.6721 14.2046 17.6695 13.905C17.6669 13.6053 17.5467 13.3187 17.3348 13.1068C17.1229 12.8949 16.8363 12.7747 16.5366 12.7721C16.237 12.7695 15.9483 12.8847 15.7327 13.0929L14.255 14.5706C13.8267 14.9993 13.5863 15.5806 13.5864 16.1866V18.5706M14.7773 9.90316C14.7773 8.61516 12.4916 5.42773 12.4916 5.42773C12.4916 5.42773 10.2059 8.61631 10.2059 9.90316C10.2059 10.534 10.447 11.1409 10.8756 11.5877C11.3042 12.0334 11.8859 12.2849 12.4916 12.2849C13.0973 12.2849 13.6802 12.0334 14.1087 11.5877C14.5401 11.1332 14.7796 10.5298 14.7773 9.90316Z" stroke="#8391A1" stroke-linecap="round" stroke-linejoin="round"/>
</g>
<defs>
<clipPath id="clip0_270_903">
<rect width="16" height="16" fill="white" transform="translate(4.46777 4)"/>
</clipPath>
</defs>
</svg>
