<svg width="27" height="24" viewBox="0 0 27 24" fill="none" xmlns="http://www.w3.org/2000/svg">
<g clip-path="url(#clip0_166_5169)">
<g clip-path="url(#clip1_166_5169)">
<path d="M8.89035 18.3237L6.70292 16.1362C6.27423 15.7077 6.03333 15.1264 6.0332 14.5202V9.75223C6.0332 9.44913 6.15361 9.15844 6.36794 8.94411C6.58227 8.72978 6.87296 8.60937 7.17606 8.60938C7.47916 8.60938 7.76985 8.72978 7.98418 8.94411C8.19851 9.15844 8.31892 9.44913 8.31892 9.75223V13.1808M17.9852 18.3237L20.1726 16.1362C20.6009 15.7075 20.8414 15.1262 20.8412 14.5202V9.75223C20.8412 9.44913 20.7208 9.15844 20.5065 8.94411C20.2921 8.72978 20.0014 8.60938 19.6983 8.60938C19.3952 8.60938 19.1046 8.72978 18.8902 8.94411C18.6759 9.15844 18.5555 9.44913 18.5555 9.75223V13.1808" stroke="#403572" stroke-linecap="round" stroke-linejoin="round"/>
<path d="M9.36465 15.2708L8.55665 14.4628C8.34847 14.2472 8.23328 13.9585 8.23588 13.6589C8.23849 13.3592 8.35868 13.0726 8.57058 12.8607C8.78247 12.6488 9.06911 12.5286 9.36877 12.526C9.66842 12.5234 9.95711 12.6386 10.1727 12.8468L11.6504 14.3245C12.0786 14.7532 12.3191 15.3345 12.3189 15.9405V18.3245M17.5109 15.2708L18.3189 14.4628C18.5271 14.2472 18.6423 13.9585 18.6397 13.6589C18.6371 13.3592 18.5169 13.0726 18.305 12.8607C18.0931 12.6488 17.8065 12.5286 17.5068 12.526C17.2072 12.5234 16.9185 12.6386 16.7029 12.8468L15.2252 14.3245C14.797 14.7532 14.5565 15.3345 14.5567 15.9405V18.3245M15.7475 9.65707C15.7475 8.36907 13.4618 5.18164 13.4618 5.18164C13.4618 5.18164 11.1761 8.37021 11.1761 9.65707C11.1761 10.2879 11.4172 10.8948 11.8458 11.3416C12.2744 11.7874 12.8561 12.0388 13.4618 12.0388C14.0675 12.0388 14.6504 11.7874 15.0789 11.3416C15.5103 10.8871 15.7498 10.2837 15.7475 9.65707Z" stroke="#403572" stroke-linecap="round" stroke-linejoin="round"/>
</g>
</g>
<defs>
<clipPath id="clip0_166_5169">
<rect width="25.7255" height="22.9056" fill="white" transform="translate(0.437988 0.753906)"/>
</clipPath>
<clipPath id="clip1_166_5169">
<rect width="16" height="16" fill="white" transform="translate(5.43799 3.75391)"/>
</clipPath>
</defs>
</svg>
