<svg width="17" height="16" viewBox="0 0 17 16" fill="none" xmlns="http://www.w3.org/2000/svg">
<g clip-path="url(#clip0_270_1607)">
<path d="M3.92038 14.5717L1.73295 12.3843C1.30426 11.9557 1.06336 11.3744 1.06323 10.7683V6.00028C1.06323 5.69717 1.18364 5.40648 1.39797 5.19216C1.61229 4.97783 1.90298 4.85742 2.20609 4.85742C2.50919 4.85742 2.79988 4.97783 3.01421 5.19216C3.22854 5.40648 3.34895 5.69717 3.34895 6.00028V9.42885M13.0152 14.5717L15.2027 12.3843C15.6309 11.9555 15.8714 11.3743 15.8712 10.7683V6.00028C15.8712 5.69717 15.7508 5.40648 15.5365 5.19216C15.3222 4.97783 15.0315 4.85742 14.7284 4.85742C14.4253 4.85742 14.1346 4.97783 13.9203 5.19216C13.7059 5.40648 13.5855 5.69717 13.5855 6.00028V9.42885" stroke="black" stroke-linecap="round" stroke-linejoin="round"/>
<path d="M4.39468 11.5179L3.58668 10.7099C3.3785 10.4943 3.26331 10.2056 3.26591 9.90597C3.26852 9.60631 3.38871 9.31967 3.6006 9.10778C3.8125 8.89588 4.09914 8.77569 4.3988 8.77308C4.69845 8.77048 4.98714 8.88567 5.20268 9.09385L6.6804 10.5716C7.10866 11.0003 7.34914 11.5816 7.34897 12.1876V14.5716M12.541 11.5179L13.349 10.7099C13.5571 10.4943 13.6723 10.2056 13.6697 9.90597C13.6671 9.60631 13.5469 9.31967 13.335 9.10778C13.1232 8.89588 12.8365 8.77569 12.5369 8.77308C12.2372 8.77048 11.9485 8.88567 11.733 9.09385L10.2553 10.5716C9.82699 11.0003 9.58651 11.5816 9.58668 12.1876V14.5716M10.7775 5.90414C10.7775 4.61614 8.49183 1.42871 8.49183 1.42871C8.49183 1.42871 6.20611 4.61728 6.20611 5.90414C6.20611 6.535 6.44725 7.14185 6.87583 7.58871C7.3044 8.03442 7.88611 8.28585 8.49183 8.28585C9.09754 8.28585 9.6804 8.03442 10.109 7.58871C10.5403 7.13417 10.7798 6.53079 10.7775 5.90414Z" stroke="black" stroke-linecap="round" stroke-linejoin="round"/>
</g>
<defs>
<clipPath id="clip0_270_1607">
<rect width="16" height="16" fill="white" transform="translate(0.467773)"/>
</clipPath>
</defs>
</svg>
