<svg width="24" height="24" viewBox="0 0 24 24" fill="none" xmlns="http://www.w3.org/2000/svg">
<path d="M5.92619 14.2773L5.16673 17.1124L2.39092 17.1712C1.56136 15.6325 1.09082 13.8721 1.09082 12.0014C1.09082 10.1924 1.53076 8.48646 2.31059 6.98438H2.31119L4.78244 7.43744L5.865 9.89386C5.63842 10.5544 5.51493 11.2635 5.51493 12.0014C5.51501 12.8022 5.66007 13.5694 5.92619 14.2773Z" fill="#FBBB00"/>
<path d="M22.7184 9.96289C22.8437 10.6228 22.909 11.3043 22.909 12.0008C22.909 12.7819 22.8269 13.5437 22.6705 14.2786C22.1394 16.7793 20.7518 18.9629 18.8295 20.5081L18.8289 20.5075L15.7163 20.3487L15.2757 17.5987C16.5512 16.8506 17.548 15.68 18.0731 14.2786H12.2397V9.96289H18.1582H22.7184Z" fill="#518EF8"/>
<path d="M18.8291 20.5081L18.8297 20.5087C16.9602 22.0114 14.5853 22.9105 12.0001 22.9105C7.84566 22.9105 4.23368 20.5884 2.39111 17.1712L5.92638 14.2773C6.84765 16.7361 9.21948 18.4863 12.0001 18.4863C13.1953 18.4863 14.315 18.1632 15.2758 17.5992L18.8291 20.5081Z" fill="#28B446"/>
<path d="M18.9631 3.60327L15.429 6.49657C14.4346 5.87501 13.2592 5.51594 11.9999 5.51594C9.1563 5.51594 6.74011 7.3465 5.86499 9.89339L2.31114 6.9839H2.31055C4.12614 3.4834 7.78367 1.0918 11.9999 1.0918C14.6468 1.0918 17.0738 2.03467 18.9631 3.60327Z" fill="#F14336"/>
</svg>
