<svg width="24" height="24" viewBox="0 0 24 24" fill="none" xmlns="http://www.w3.org/2000/svg">
<path d="M11.9618 20C9.9311 20 8.16076 19.3367 6.65076 18.01C5.14143 16.684 4.2681 15.014 4.03076 13H5.04176C5.31376 14.72 6.09743 16.15 7.39276 17.29C8.6881 18.43 10.2111 19 11.9618 19C13.9118 19 15.5658 18.321 16.9238 16.963C18.2818 15.605 18.9611 13.9507 18.9618 12C18.9624 10.0493 18.2831 8.395 16.9238 7.037C15.5644 5.679 13.9104 5 11.9618 5C10.9264 5 9.95376 5.21867 9.04376 5.656C8.13376 6.09267 7.33043 6.69433 6.63376 7.461H9.11476V8.461H4.96176V4.309H5.96176V6.697C6.73509 5.84833 7.6411 5.187 8.67976 4.713C9.71843 4.239 10.8124 4.00133 11.9618 4C13.0704 4 14.1098 4.20867 15.0798 4.626C16.0498 5.04333 16.8971 5.61467 17.6218 6.34C18.3464 7.06533 18.9178 7.91267 19.3358 8.882C19.7538 9.85133 19.9624 10.8907 19.9618 12C19.9611 13.1093 19.7524 14.1487 19.3358 15.118C18.9191 16.0873 18.3478 16.9347 17.6218 17.66C16.8958 18.3853 16.0484 18.9567 15.0798 19.374C14.1111 19.7913 13.0718 20 11.9618 20ZM15.1658 15.854L11.5188 12.208V7H12.5188V11.792L15.8728 15.146L15.1658 15.854Z" fill="black"/>
</svg>
