<svg width="18" height="18" viewBox="0 0 18 18" fill="none" xmlns="http://www.w3.org/2000/svg">
<path d="M5.25 13.5C3.87825 13.809 3 14.283 3 14.8155C3 15.7455 5.6865 16.5 9 16.5C12.3135 16.5 15 15.7455 15 14.8155C15 14.283 14.1217 13.809 12.75 13.5M10.875 6.75C10.875 7.24728 10.6775 7.72419 10.3258 8.07583C9.97419 8.42746 9.49728 8.625 9 8.625C8.50272 8.625 8.02581 8.42746 7.67417 8.07583C7.32254 7.72419 7.125 7.24728 7.125 6.75C7.125 6.25272 7.32254 5.77581 7.67417 5.42417C8.02581 5.07254 8.50272 4.875 9 4.875C9.49728 4.875 9.97419 5.07254 10.3258 5.42417C10.6775 5.77581 10.875 6.25272 10.875 6.75Z" stroke="#3A3A3A" stroke-width="1.2" stroke-linecap="round" stroke-linejoin="round"/>
<path d="M9.94287 13.1205C9.68954 13.3642 9.35166 13.5004 9.00012 13.5004C8.64857 13.5004 8.31069 13.3642 8.05737 13.1205C5.74062 10.8757 2.63637 8.3685 4.14987 4.728C4.96962 2.75925 6.93462 1.5 9.00012 1.5C11.0656 1.5 13.0314 2.76 13.8504 4.728C15.3624 8.36325 12.2656 10.8832 9.94287 13.1205Z" stroke="#3A3A3A" stroke-width="1.2" stroke-linecap="round" stroke-linejoin="round"/>
</svg>
