<svg width="20" height="19" viewBox="0 0 20 19" fill="none" xmlns="http://www.w3.org/2000/svg">
<path d="M6.22222 6.16558H13.7778M6.22222 9.94336H11.8889M15.6667 1.44336C16.4181 1.44336 17.1388 1.74187 17.6701 2.27322C18.2015 2.80458 18.5 3.52525 18.5 4.27669V11.8322C18.5 12.5837 18.2015 13.3044 17.6701 13.8357C17.1388 14.3671 16.4181 14.6656 15.6667 14.6656H10.9444L6.22222 17.4989V14.6656H4.33333C3.58189 14.6656 2.86122 14.3671 2.32986 13.8357C1.79851 13.3044 1.5 12.5837 1.5 11.8322V4.27669C1.5 3.52525 1.79851 2.80458 2.32986 2.27322C2.86122 1.74187 3.58189 1.44336 4.33333 1.44336H15.6667Z" stroke="black" stroke-width="1.1" stroke-linecap="round" stroke-linejoin="round"/>
</svg>
