<svg width="12" height="4" viewBox="0 0 12 4" fill="none" xmlns="http://www.w3.org/2000/svg">
<g clip-path="url(#clip0_166_5105)">
<g clip-path="url(#clip1_166_5105)">
<path d="M0.333171 2.00065C0.333171 1.61107 0.471886 1.27756 0.749316 1.00013C1.02675 0.7227 1.36025 0.583984 1.74984 0.583984C2.13942 0.583984 2.47293 0.7227 2.75036 1.00013C3.02779 1.27756 3.1665 1.61107 3.1665 2.00065C3.1665 2.39023 3.02779 2.72374 2.75036 3.00117C2.47293 3.2786 2.13942 3.41732 1.74984 3.41732C1.36025 3.41732 1.02675 3.2786 0.749316 3.00117C0.471886 2.72374 0.333171 2.39023 0.333171 2.00065ZM4.58317 2.00065C4.58317 1.61107 4.72189 1.27756 4.99932 1.00013C5.27675 0.7227 5.61025 0.583984 5.99984 0.583984C6.38942 0.583984 6.72293 0.7227 7.00036 1.00013C7.27779 1.27756 7.4165 1.61107 7.4165 2.00065C7.4165 2.39023 7.27779 2.72374 7.00036 3.00117C6.72293 3.2786 6.38942 3.41732 5.99984 3.41732C5.61025 3.41732 5.27675 3.2786 4.99932 3.00117C4.72189 2.72374 4.58317 2.39023 4.58317 2.00065ZM8.83317 2.00065C8.83317 1.61107 8.97189 1.27756 9.24932 1.00013C9.52675 0.7227 9.86025 0.583984 10.2498 0.583984C10.6394 0.583984 10.9729 0.7227 11.2504 1.00013C11.5278 1.27756 11.6665 1.61107 11.6665 2.00065C11.6665 2.39023 11.5278 2.72374 11.2504 3.00117C10.9729 3.2786 10.6394 3.41732 10.2498 3.41732C9.86025 3.41732 9.52675 3.2786 9.24932 3.00117C8.97189 2.72374 8.83317 2.39023 8.83317 2.00065Z" fill="#1D1B20"/>
</g>
</g>
<defs>
<clipPath id="clip0_166_5105">
<rect width="12" height="4" fill="white"/>
</clipPath>
<clipPath id="clip1_166_5105">
<rect width="17" height="17" fill="white" transform="translate(-2.5 -6.5)"/>
</clipPath>
</defs>
</svg>
