<svg width="24" height="24" viewBox="0 0 24 24" fill="none" xmlns="http://www.w3.org/2000/svg">
<path d="M7.53984 19H3.99984C3.73467 19 3.48035 18.8947 3.29285 18.7072C3.10534 18.5196 3 18.2653 3 18.0002V5.00032C2.99994 4.86898 3.02575 4.73891 3.07597 4.61755C3.12619 4.49619 3.19983 4.38591 3.29268 4.29302C3.38553 4.20012 3.49577 4.12643 3.61711 4.07615C3.73844 4.02588 3.8685 4 3.99984 4H20.0002C20.1315 4 20.2616 4.02588 20.3829 4.07615C20.5042 4.12643 20.6145 4.20012 20.7073 4.29302C20.8002 4.38591 20.8738 4.49619 20.924 4.61755C20.9742 4.73891 21.0001 4.86898 21 5.00032V18.0002C21 18.2653 20.8947 18.5196 20.7072 18.7072C20.5196 18.8947 20.2653 19 20.0002 19H16.4602" stroke="black" stroke-width="0.96" stroke-linecap="round" stroke-linejoin="round"/>
<path d="M3 9H21M12 9C10.4087 9 8.88258 9.63214 7.75736 10.7574C6.63214 11.8826 6 13.4087 6 15C6 16.5913 6.63214 18.1174 7.75736 19.2426C8.88258 20.3679 10.4087 21 12 21C13.5913 21 15.1174 20.3679 16.2426 19.2426C17.3679 18.1174 18 16.5913 18 15C18 13.4087 17.3679 11.8826 16.2426 10.7574C15.1174 9.63214 13.5913 9 12 9Z" stroke="black" stroke-width="0.96" stroke-linecap="round" stroke-linejoin="round"/>
<path d="M8 3V6M15.9997 3V6M9.99968 15.9998L11 17.0002L14 14.0002" stroke="#3A3A3A" stroke-width="0.96" stroke-linecap="round" stroke-linejoin="round"/>
</svg>
