<svg width="24" height="24" viewBox="0 0 24 24" fill="none" xmlns="http://www.w3.org/2000/svg">
<path d="M4.92864 3.00056C4.41715 3.00056 3.92661 3.20375 3.56494 3.56542C3.20326 3.9271 3.00007 4.41764 3.00007 4.92913V7.50056C3.00007 7.67105 2.93234 7.83457 2.81178 7.95513C2.69122 8.07569 2.52771 8.14342 2.35721 8.14342C2.18672 8.14342 2.0232 8.07569 1.90264 7.95513C1.78208 7.83457 1.71436 7.67105 1.71436 7.50056V4.92913C1.71436 4.07665 2.053 3.25908 2.6558 2.65629C3.25859 2.05349 4.07616 1.71484 4.92864 1.71484H7.50007C7.67057 1.71484 7.83408 1.78257 7.95464 1.90313C8.0752 2.02369 8.14293 2.1872 8.14293 2.3577C8.14293 2.5282 8.0752 2.69171 7.95464 2.81227C7.83408 2.93283 7.67057 3.00056 7.50007 3.00056H4.92864ZM4.92864 21.0006C4.83721 21.0006 4.74721 20.9943 4.65864 20.9817L4.64321 20.98C4.18616 20.9116 3.76886 20.6813 3.46728 20.3312C3.16571 19.981 2.99991 19.5341 3.00007 19.072V16.5006C3.00007 16.3301 2.93234 16.1665 2.81178 16.046C2.69122 15.9254 2.52771 15.8577 2.35721 15.8577C2.18672 15.8577 2.0232 15.9254 1.90264 16.046C1.78208 16.1665 1.71436 16.3301 1.71436 16.5006V19.072C1.71436 19.9245 2.053 20.742 2.6558 21.3448C3.25859 21.9476 4.07616 22.2863 4.92864 22.2863H7.50007C7.67057 22.2863 7.83408 22.2185 7.95464 22.098C8.0752 21.9774 8.14293 21.8139 8.14293 21.6434C8.14293 21.4729 8.0752 21.3094 7.95464 21.1888C7.83408 21.0683 7.67057 21.0006 7.50007 21.0006H4.92864ZM21.0001 4.92913C21.0001 4.41764 20.7969 3.9271 20.4352 3.56542C20.0735 3.20375 19.583 3.00056 19.0715 3.00056H16.5001C16.3296 3.00056 16.1661 2.93283 16.0455 2.81227C15.9249 2.69171 15.8572 2.5282 15.8572 2.3577C15.8572 2.1872 15.9249 2.02369 16.0455 1.90313C16.1661 1.78257 16.3296 1.71484 16.5001 1.71484H19.0715C19.924 1.71484 20.7415 2.05349 21.3443 2.65629C21.9471 3.25908 22.2858 4.07665 22.2858 4.92913V7.50056C22.2858 7.67105 22.2181 7.83457 22.0975 7.95513C21.9769 8.07569 21.8134 8.14342 21.6429 8.14342C21.4724 8.14342 21.3089 8.07569 21.1884 7.95513C21.0678 7.83457 21.0001 7.67105 21.0001 7.50056V4.92913ZM19.0715 21.0006C19.1549 21.0006 19.2369 20.9954 19.3175 20.9851L19.3252 20.9843C19.7888 20.9228 20.2142 20.6949 20.5223 20.3431C20.8304 19.9914 21.0002 19.5396 21.0001 19.072V16.5006C21.0001 16.3301 21.0678 16.1665 21.1884 16.046C21.3089 15.9254 21.4724 15.8577 21.6429 15.8577C21.8134 15.8577 21.9769 15.9254 22.0975 16.046C22.2181 16.1665 22.2858 16.3301 22.2858 16.5006V19.072C22.2858 19.9245 21.9471 20.742 21.3443 21.3448C20.7415 21.9476 19.924 22.2863 19.0715 22.2863H16.5001C16.3296 22.2863 16.1661 22.2185 16.0455 22.098C15.9249 21.9774 15.8572 21.8139 15.8572 21.6434C15.8572 21.4729 15.9249 21.3094 16.0455 21.1888C16.1661 21.0683 16.3296 21.0006 16.5001 21.0006H19.0715ZM5.5715 19.468C5.5715 19.7023 5.6095 19.9274 5.6855 20.1434H4.92864C4.70236 20.1434 4.49236 20.0731 4.32007 19.954C4.29713 19.793 4.28567 19.6306 4.28578 19.468V19.072C4.28578 18.4468 4.53413 17.8473 4.97618 17.4052C5.41823 16.9632 6.01777 16.7148 6.64293 16.7148H17.3572C17.9824 16.7148 18.5819 16.9632 19.024 17.4052C19.466 17.8473 19.7144 18.4468 19.7144 19.072V19.468C19.7144 19.636 19.7018 19.7988 19.6766 19.9566C19.5052 20.074 19.2961 20.1434 19.0715 20.1434H18.2984C18.3846 19.9234 18.4281 19.6983 18.4286 19.468V19.072C18.4286 18.4806 17.9486 18.0006 17.3572 18.0006H6.64293C6.0515 18.0006 5.5715 18.4806 5.5715 19.072V19.468ZM15.4286 9.8577C15.4286 8.94839 15.0674 8.07632 14.4244 7.43333C13.7815 6.79035 12.9094 6.42913 12.0001 6.42913C11.0908 6.42913 10.2187 6.79035 9.5757 7.43333C8.93272 8.07632 8.5715 8.94839 8.5715 9.8577C8.5715 10.767 8.93272 11.6391 9.5757 12.2821C10.2187 12.925 11.0908 13.2863 12.0001 13.2863C12.9094 13.2863 13.7815 12.925 14.4244 12.2821C15.0674 11.6391 15.4286 10.767 15.4286 9.8577ZM16.7144 9.8577C16.7144 11.108 16.2177 12.3071 15.3336 13.1912C14.4495 14.0753 13.2504 14.572 12.0001 14.572C10.7498 14.572 9.55067 14.0753 8.66657 13.1912C7.78247 12.3071 7.28578 11.108 7.28578 9.8577C7.28578 8.60739 7.78247 7.4083 8.66657 6.5242C9.55067 5.6401 10.7498 5.14342 12.0001 5.14342C13.2504 5.14342 14.4495 5.6401 15.3336 6.5242C16.2177 7.4083 16.7144 8.60739 16.7144 9.8577Z" fill="#1E1E1E"/>
</svg>
