<svg width="18" height="18" viewBox="0 0 18 18" fill="none" xmlns="http://www.w3.org/2000/svg">
<path d="M3 15.75H10.215C10.6478 15.75 11.0754 15.6563 11.4686 15.4755C11.8617 15.2946 12.2111 15.0309 12.4928 14.7023L16.3193 10.2383C16.3994 10.1449 16.4553 10.0334 16.4822 9.91332C16.509 9.79329 16.5059 9.6685 16.4732 9.54995C16.4404 9.43139 16.379 9.32271 16.2944 9.23348C16.2097 9.14425 16.1044 9.07721 15.9877 9.03826L14.5118 8.54626C14.155 8.4301 13.7752 8.40376 13.4059 8.46956C13.0365 8.53537 12.6891 8.69129 12.3945 8.92351L10.0057 10.8338L9.543 9.90751C9.29509 9.40821 8.91232 8.98832 8.43805 8.69538C7.96378 8.40243 7.41695 8.24815 6.8595 8.25001H3C2.17275 8.25001 1.5 8.92276 1.5 9.75001V14.25C1.5 15.0773 2.17275 15.75 3 15.75ZM3 9.75001H6.8595C7.43175 9.75001 7.9455 10.0673 8.20125 10.5788L8.5365 11.25H5.25V12.75H9.7605C9.87588 12.7484 9.98932 12.7201 10.092 12.6675L10.0942 12.6668L10.0972 12.6653H10.0995L10.101 12.6645H10.104L10.1047 12.6638C10.1115 12.666 10.107 12.663 10.107 12.663C10.1145 12.663 10.1085 12.6623 10.1085 12.6623H10.1093L10.1108 12.6615L10.113 12.6608L10.1145 12.66L10.116 12.6593L10.1182 12.6585L10.1198 12.6578C10.122 12.6578 10.1205 12.657 10.1213 12.657L10.1235 12.6555L10.125 12.6548L10.1265 12.654L10.1287 12.6533L10.1302 12.6525H10.131L10.1325 12.6518L10.1347 12.651L10.1363 12.6503C10.143 12.6495 10.1385 12.6495 10.1385 12.6495L10.14 12.6488C10.1688 12.6311 10.1963 12.6116 10.2225 12.5903L13.332 10.1025C13.5285 9.94651 13.7992 9.89776 14.037 9.97726L14.4548 10.1168L11.355 13.734C11.2124 13.8959 11.037 14.0256 10.8405 14.1145C10.6439 14.2035 10.4307 14.2497 10.215 14.25H3V9.75001ZM12 1.50001H11.9872C11.865 1.50151 11.2327 1.52926 10.5 2.02876C9.78675 1.54276 9.1695 1.50376 9.024 1.50076L9.0015 1.50001H8.9985C8.39775 1.50001 7.83225 1.73476 7.40925 2.15851C6.98475 2.58376 6.75 3.14851 6.75 3.75001C6.75 4.35151 6.98475 4.91626 7.39575 5.32801L9.95625 8.01751C10.0267 8.09064 10.1112 8.1488 10.2046 8.1885C10.2981 8.2282 10.3986 8.24863 10.5002 8.24856C10.6017 8.24849 10.7022 8.22792 10.7956 8.18809C10.889 8.14826 10.9734 8.08998 11.0438 8.01676L13.5907 5.34076C14.016 4.91626 14.25 4.35151 14.25 3.75001C14.25 3.14851 14.0153 2.58376 13.5915 2.15926C13.3832 1.94973 13.1354 1.78359 12.8625 1.67043C12.5896 1.55727 12.2969 1.49935 12.0015 1.50001H12ZM12.75 3.75001C12.75 3.95026 12.672 4.13851 12.5167 4.29376L10.5 6.41251L8.46975 4.28026C8.328 4.13851 8.25 3.95026 8.25 3.75001C8.25 3.54976 8.328 3.36151 8.4705 3.21901C8.60627 3.08125 8.79086 3.00257 8.98425 3.00001C9.003 3.00076 9.36075 3.02401 9.7845 3.36376C9.845 3.41276 9.90675 3.46826 9.96975 3.53026L10.5 4.06051L11.0302 3.53026C11.0933 3.46826 11.155 3.41276 11.2155 3.36376C11.6123 3.04501 11.9475 3.00526 12.0045 3.00076C12.2017 3.00179 12.3906 3.08047 12.5303 3.21976C12.672 3.36151 12.75 3.54976 12.75 3.75001Z" fill="black"/>
<path d="M3 15.75H10.215C10.6478 15.75 11.0754 15.6563 11.4686 15.4755C11.8617 15.2946 12.2111 15.0309 12.4928 14.7023L16.3193 10.2383C16.3994 10.1449 16.4553 10.0334 16.4822 9.91332C16.509 9.79329 16.5059 9.6685 16.4732 9.54995C16.4404 9.43139 16.379 9.32271 16.2944 9.23348C16.2097 9.14425 16.1044 9.07721 15.9877 9.03826L14.5118 8.54626C14.155 8.4301 13.7752 8.40376 13.4059 8.46956C13.0365 8.53537 12.6891 8.69129 12.3945 8.92351L10.0057 10.8338L9.543 9.90751C9.29509 9.40821 8.91232 8.98832 8.43805 8.69538C7.96378 8.40243 7.41695 8.24815 6.8595 8.25001H3C2.17275 8.25001 1.5 8.92276 1.5 9.75001V14.25C1.5 15.0773 2.17275 15.75 3 15.75ZM3 9.75001H6.8595C7.43175 9.75001 7.9455 10.0673 8.20125 10.5788L8.5365 11.25H5.25V12.75H9.7605C9.87588 12.7484 9.98932 12.7201 10.092 12.6675L10.0942 12.6668L10.0972 12.6653H10.0995L10.101 12.6645H10.104L10.1047 12.6638C10.1115 12.666 10.107 12.663 10.107 12.663C10.1145 12.663 10.1085 12.6623 10.1085 12.6623H10.1093L10.1108 12.6615L10.113 12.6608L10.1145 12.66L10.116 12.6593L10.1182 12.6585L10.1198 12.6578C10.122 12.6578 10.1205 12.657 10.1213 12.657L10.1235 12.6555L10.125 12.6548L10.1265 12.654L10.1287 12.6533L10.1302 12.6525H10.131L10.1325 12.6518L10.1347 12.651L10.1363 12.6503C10.143 12.6495 10.1385 12.6495 10.1385 12.6495L10.14 12.6488C10.1688 12.6311 10.1963 12.6116 10.2225 12.5903L13.332 10.1025C13.5285 9.94651 13.7992 9.89776 14.037 9.97726L14.4548 10.1168L11.355 13.734C11.2124 13.8959 11.037 14.0256 10.8405 14.1145C10.6439 14.2035 10.4307 14.2497 10.215 14.25H3V9.75001ZM12 1.50001H11.9872C11.865 1.50151 11.2327 1.52926 10.5 2.02876C9.78675 1.54276 9.1695 1.50376 9.024 1.50076L9.0015 1.50001H8.9985C8.39775 1.50001 7.83225 1.73476 7.40925 2.15851C6.98475 2.58376 6.75 3.14851 6.75 3.75001C6.75 4.35151 6.98475 4.91626 7.39575 5.32801L9.95625 8.01751C10.0267 8.09064 10.1112 8.1488 10.2046 8.1885C10.2981 8.2282 10.3986 8.24863 10.5002 8.24856C10.6017 8.24849 10.7022 8.22792 10.7956 8.18809C10.889 8.14826 10.9734 8.08998 11.0438 8.01676L13.5907 5.34076C14.016 4.91626 14.25 4.35151 14.25 3.75001C14.25 3.14851 14.0153 2.58376 13.5915 2.15926C13.3832 1.94973 13.1354 1.78359 12.8625 1.67043C12.5896 1.55727 12.2969 1.49935 12.0015 1.50001H12ZM12.75 3.75001C12.75 3.95026 12.672 4.13851 12.5167 4.29376L10.5 6.41251L8.46975 4.28026C8.328 4.13851 8.25 3.95026 8.25 3.75001C8.25 3.54976 8.328 3.36151 8.4705 3.21901C8.60627 3.08125 8.79086 3.00257 8.98425 3.00001C9.003 3.00076 9.36075 3.02401 9.7845 3.36376C9.845 3.41276 9.90675 3.46826 9.96975 3.53026L10.5 4.06051L11.0302 3.53026C11.0933 3.46826 11.155 3.41276 11.2155 3.36376C11.6123 3.04501 11.9475 3.00526 12.0045 3.00076C12.2017 3.00179 12.3906 3.08047 12.5303 3.21976C12.672 3.36151 12.75 3.54976 12.75 3.75001Z" fill="black"/>
</svg>
