<svg width="26" height="24" viewBox="0 0 26 24" fill="none" xmlns="http://www.w3.org/2000/svg">
<g clip-path="url(#clip0_166_5175)">
<path d="M8.43213 14.3797C6.77313 13.7174 5.80713 12.0794 5.80713 10.3859C5.80713 8.18841 7.54488 6.01716 8.76438 4.76466C9.42663 4.08366 10.4369 4.08366 11.0999 4.76466C11.4689 5.14341 11.7809 5.60616 12.1821 6.12891M10.3071 13.9492C10.3071 11.2822 12.5189 8.64666 14.0714 7.12416C14.9144 6.29841 16.1999 6.29841 17.0429 7.12416C18.5954 8.64666 20.8071 11.2822 20.8071 13.9492C20.8071 16.5644 18.8196 19.2547 15.5571 19.2547C12.2946 19.2547 10.3071 16.5644 10.3071 13.9492Z" stroke="#479696" stroke-width="1.2" stroke-linecap="round" stroke-linejoin="round"/>
<path d="M18.1821 14.3789C18.1821 16.0364 17.0571 16.6289 15.9321 16.6289" stroke="#479696" stroke-width="1.2" stroke-linecap="round" stroke-linejoin="round"/>
</g>
<rect x="0.807129" y="1.25391" width="24.5686" height="21.9056" stroke="#F7F8F9"/>
<defs>
<clipPath id="clip0_166_5175">
<rect x="0.307129" y="0.753906" width="25.5686" height="22.9056" fill="white"/>
</clipPath>
</defs>
</svg>
