<svg width="25" height="24" viewBox="0 0 25 24" fill="none" xmlns="http://www.w3.org/2000/svg">
<path d="M7.68066 14.6257C6.02166 13.9635 5.05566 12.3255 5.05566 10.632C5.05566 8.4345 6.79341 6.26325 8.01291 5.01075C8.67516 4.32975 9.68541 4.32975 10.3484 5.01075C10.7174 5.3895 11.0294 5.85225 11.4307 6.375M9.55566 14.1953C9.55566 11.5283 11.7674 8.89275 13.3199 7.37025C14.1629 6.5445 15.4484 6.5445 16.2914 7.37025C17.8439 8.89275 20.0557 11.5283 20.0557 14.1953C20.0557 16.8105 18.0682 19.5007 14.8057 19.5007C11.5432 19.5007 9.55566 16.8105 9.55566 14.1953Z" stroke="black" stroke-width="1.2" stroke-linecap="round" stroke-linejoin="round"/>
<path d="M17.4307 14.625C17.4307 16.2825 16.3057 16.875 15.1807 16.875" stroke="black" stroke-width="1.2" stroke-linecap="round" stroke-linejoin="round"/>
</svg>
