<svg width="17" height="17" viewBox="0 0 17 17" fill="none" xmlns="http://www.w3.org/2000/svg">
<g clip-path="url(#clip0_166_5102)">
<g clip-path="url(#clip1_166_5102)">
<path d="M5.58458 9.07089L10.4225 11.8901M10.4154 4.11255L5.58458 6.93172M14.375 3.04297C14.375 4.21657 13.4236 5.16797 12.25 5.16797C11.0764 5.16797 10.125 4.21657 10.125 3.04297C10.125 1.86936 11.0764 0.917969 12.25 0.917969C13.4236 0.917969 14.375 1.86936 14.375 3.04297ZM5.875 8.0013C5.875 9.17491 4.9236 10.1263 3.75 10.1263C2.57639 10.1263 1.625 9.17491 1.625 8.0013C1.625 6.8277 2.57639 5.8763 3.75 5.8763C4.9236 5.8763 5.875 6.8277 5.875 8.0013ZM14.375 12.9596C14.375 14.1332 13.4236 15.0846 12.25 15.0846C11.0764 15.0846 10.125 14.1332 10.125 12.9596C10.125 11.786 11.0764 10.8346 12.25 10.8346C13.4236 10.8346 14.375 11.786 14.375 12.9596Z" stroke="#1E1E1E" stroke-width="0.991667" stroke-linecap="round" stroke-linejoin="round"/>
</g>
</g>
<defs>
<clipPath id="clip0_166_5102">
<rect width="17" height="17" fill="white"/>
</clipPath>
<clipPath id="clip1_166_5102">
<rect width="17" height="17" fill="white" transform="translate(-0.5 -0.5)"/>
</clipPath>
</defs>
</svg>
