<svg width="14" height="14" viewBox="0 0 14 14" fill="none" xmlns="http://www.w3.org/2000/svg">
<g clip-path="url(#clip0_270_1004)">
<path d="M3 7.00063V4.37063C3.00781 3.85366 3.11755 3.34332 3.32294 2.86883C3.52832 2.39435 3.82532 1.96506 4.1969 1.60555C4.56848 1.24605 5.00735 0.963395 5.48836 0.773792C5.96936 0.58419 6.48306 0.491363 7 0.500632C7.51694 0.491363 8.03064 0.58419 8.51164 0.773792C8.99265 0.963395 9.43152 1.24605 9.8031 1.60555C10.1747 1.96506 10.4717 2.39435 10.6771 2.86883C10.8824 3.34332 10.9922 3.85366 11 4.37063V7.00063M9 12.2506C9.53043 12.2506 10.0391 12.0399 10.4142 11.6648C10.7893 11.2898 11 10.7811 11 10.2506V8.00063M9 12.2506C9 12.5822 8.8683 12.9001 8.63388 13.1345C8.39946 13.3689 8.08152 13.5006 7.75 13.5006H6.25C5.91848 13.5006 5.60054 13.3689 5.36612 13.1345C5.1317 12.9001 5 12.5822 5 12.2506C5 11.9191 5.1317 11.6012 5.36612 11.3667C5.60054 11.1323 5.91848 11.0006 6.25 11.0006H7.75C8.08152 11.0006 8.39946 11.1323 8.63388 11.3667C8.8683 11.6012 9 11.9191 9 12.2506ZM1.5 5.50063H2.5C2.63261 5.50063 2.75979 5.55331 2.85355 5.64708C2.94732 5.74085 3 5.86802 3 6.00063V9.00063C3 9.13324 2.94732 9.26042 2.85355 9.35419C2.75979 9.44795 2.63261 9.50063 2.5 9.50063H1.5C1.23478 9.50063 0.98043 9.39527 0.792893 9.20774C0.605357 9.0202 0.5 8.76585 0.5 8.50063V6.50063C0.5 6.23541 0.605357 5.98106 0.792893 5.79352C0.98043 5.60599 1.23478 5.50063 1.5 5.50063ZM12.5 9.50063H11.5C11.3674 9.50063 11.2402 9.44795 11.1464 9.35419C11.0527 9.26042 11 9.13324 11 9.00063V6.00063C11 5.86802 11.0527 5.74085 11.1464 5.64708C11.2402 5.55331 11.3674 5.50063 11.5 5.50063H12.5C12.7652 5.50063 13.0196 5.60599 13.2071 5.79352C13.3946 5.98106 13.5 6.23541 13.5 6.50063V8.50063C13.5 8.76585 13.3946 9.0202 13.2071 9.20774C13.0196 9.39527 12.7652 9.50063 12.5 9.50063Z" stroke="black" stroke-linecap="round" stroke-linejoin="round"/>
</g>
<defs>
<clipPath id="clip0_270_1004">
<rect width="14" height="14" fill="white"/>
</clipPath>
</defs>
</svg>
