<svg width="24" height="25" viewBox="0 0 24 25" fill="none" xmlns="http://www.w3.org/2000/svg">
<g clip-path="url(#clip0_270_1364)">
<path d="M21 12.5488C21.4688 12.8691 21.8867 13.2324 22.2539 13.6387C22.6211 14.0449 22.9375 14.4902 23.2031 14.9746C23.4688 15.459 23.6641 15.9707 23.7891 16.5098C23.9141 17.0488 23.9844 17.5996 24 18.1621C24 19.0918 23.8242 19.9668 23.4727 20.7871C23.1211 21.6074 22.6367 22.3223 22.0195 22.9316C21.4023 23.541 20.6875 24.0215 19.875 24.373C19.0625 24.7246 18.1875 24.9043 17.25 24.9121C16.5391 24.9121 15.8516 24.8066 15.1875 24.5957C14.5234 24.3848 13.9141 24.0801 13.3594 23.6816C12.8047 23.2832 12.3125 22.8066 11.8828 22.252C11.4531 21.6973 11.1211 21.084 10.8867 20.4121H1.5V2.41211H4.5V0.912109H6V2.41211H16.5V0.912109H18V2.41211H21V12.5488ZM3 3.91211V6.91211H19.5V3.91211H18V5.41211H16.5V3.91211H6V5.41211H4.5V3.91211H3ZM10.5352 18.9121C10.5117 18.6699 10.5 18.4199 10.5 18.1621C10.5 17.4902 10.5938 16.8379 10.7812 16.2051C10.9688 15.5723 11.2539 14.9746 11.6367 14.4121H10.5V12.9121H12V13.9199C12.3203 13.5215 12.6758 13.1699 13.0664 12.8652C13.457 12.5605 13.8789 12.2988 14.332 12.0801C14.7852 11.8613 15.2578 11.6973 15.75 11.5879C16.2422 11.4785 16.7422 11.4199 17.25 11.4121C18.0312 11.4121 18.7812 11.541 19.5 11.7988V8.41211H3V18.9121H10.5352ZM17.25 23.4121C17.9766 23.4121 18.6562 23.2754 19.2891 23.002C19.9219 22.7285 20.4766 22.3535 20.9531 21.877C21.4297 21.4004 21.8047 20.8457 22.0781 20.2129C22.3516 19.5801 22.4922 18.8965 22.5 18.1621C22.5 17.4355 22.3633 16.7559 22.0898 16.123C21.8164 15.4902 21.4414 14.9355 20.9648 14.459C20.4883 13.9824 19.9336 13.6074 19.3008 13.334C18.668 13.0605 17.9844 12.9199 17.25 12.9121C16.5234 12.9121 15.8438 13.0488 15.2109 13.3223C14.5781 13.5957 14.0234 13.9707 13.5469 14.4473C13.0703 14.9238 12.6953 15.4785 12.4219 16.1113C12.1484 16.7441 12.0078 17.4277 12 18.1621C12 18.8887 12.1367 19.5684 12.4102 20.2012C12.6836 20.834 13.0586 21.3887 13.5352 21.8652C14.0117 22.3418 14.5664 22.7168 15.1992 22.9902C15.832 23.2637 16.5156 23.4043 17.25 23.4121ZM18 17.4121H20.25V18.9121H16.5V14.4121H18V17.4121ZM4.5 12.9121H6V14.4121H4.5V12.9121ZM7.5 12.9121H9V14.4121H7.5V12.9121ZM7.5 9.91211H9V11.4121H7.5V9.91211ZM7.5 15.9121H9V17.4121H7.5V15.9121ZM12 11.4121H10.5V9.91211H12V11.4121ZM15 11.4121H13.5V9.91211H15V11.4121ZM4.5 9.91211H6V11.4121H4.5V9.91211Z" fill="black"/>
</g>
<defs>
<clipPath id="clip0_270_1364">
<rect width="24" height="24" fill="white" transform="translate(0 0.912109)"/>
</clipPath>
</defs>
</svg>
